<svg xmlns="http://www.w3.org/2000/svg" xmlns:xlink="http://www.w3.org/1999/xlink" version="1.1" width="256" height="256" viewBox="0 0 256 256" xml:space="preserve">

<defs>
</defs>
<g style="stroke: none; stroke-width: 0; stroke-dasharray: none; stroke-linecap: butt; stroke-linejoin: miter; stroke-miterlimit: 10; fill: none; fill-rule: nonzero; opacity: 1;" transform="translate(1.4065934065934016 1.4065934065934016) scale(2.81 2.81)" >
	<path d="M 48.973 22.406 c -0.413 0 -0.8 -0.258 -0.944 -0.67 c -0.182 -0.521 0.093 -1.092 0.614 -1.274 l 27.958 -9.777 c 0.524 -0.18 1.092 0.093 1.274 0.614 c 0.182 0.521 -0.093 1.092 -0.614 1.274 l -27.958 9.777 C 49.193 22.387 49.082 22.406 48.973 22.406 z" style="stroke: none; stroke-width: 1; stroke-dasharray: none; stroke-linecap: butt; stroke-linejoin: miter; stroke-miterlimit: 10; fill: rgb(225,122,23); fill-rule: nonzero; opacity: 1;" transform=" matrix(1 0 0 1 0 0) " stroke-linecap="round" />
	<path d="M 13.069 34.962 c -0.413 0 -0.8 -0.258 -0.944 -0.67 c -0.183 -0.521 0.092 -1.092 0.614 -1.274 l 28.746 -10.052 c 0.523 -0.18 1.092 0.092 1.274 0.614 c 0.183 0.521 -0.092 1.092 -0.614 1.274 L 13.399 34.905 C 13.29 34.943 13.178 34.962 13.069 34.962 z" style="stroke: none; stroke-width: 1; stroke-dasharray: none; stroke-linecap: butt; stroke-linejoin: miter; stroke-miterlimit: 10; fill: rgb(225,122,23); fill-rule: nonzero; opacity: 1;" transform=" matrix(1 0 0 1 0 0) " stroke-linecap="round" />
	<rect x="42.65" y="26.12" rx="0" ry="0" width="4.71" height="39.42" style="stroke: none; stroke-width: 1; stroke-dasharray: none; stroke-linecap: butt; stroke-linejoin: miter; stroke-miterlimit: 10; fill: rgb(90,81,107); fill-rule: nonzero; opacity: 1;" transform=" matrix(1 0 0 1 0 0) "/>
	<path d="M 58.227 75.278 c -8.818 2.667 -17.636 2.667 -26.454 0 v 0 c 0 -6.123 4.964 -11.087 11.087 -11.087 h 4.279 C 53.263 64.191 58.227 69.155 58.227 75.278 L 58.227 75.278 z" style="stroke: none; stroke-width: 1; stroke-dasharray: none; stroke-linecap: butt; stroke-linejoin: miter; stroke-miterlimit: 10; fill: rgb(150,148,162); fill-rule: nonzero; opacity: 1;" transform=" matrix(1 0 0 1 0 0) " stroke-linecap="round" />
	<path d="M 22.341 65.213 c -0.433 0 -0.836 -0.278 -0.974 -0.713 l -8.804 -27.686 c -0.171 -0.538 0.126 -1.114 0.665 -1.285 c 0.539 -0.17 1.113 0.126 1.285 0.665 l 8.804 27.687 c 0.171 0.538 -0.126 1.113 -0.665 1.284 C 22.548 65.198 22.444 65.213 22.341 65.213 z" style="stroke: none; stroke-width: 1; stroke-dasharray: none; stroke-linecap: butt; stroke-linejoin: miter; stroke-miterlimit: 10; fill: rgb(90,81,107); fill-rule: nonzero; opacity: 1;" transform=" matrix(1 0 0 1 0 0) " stroke-linecap="round" />
	<path d="M 3.206 65.213 c -0.103 0 -0.207 -0.015 -0.311 -0.048 c -0.538 -0.172 -0.835 -0.746 -0.665 -1.284 l 8.841 -27.801 c 0.171 -0.538 0.746 -0.834 1.285 -0.665 c 0.538 0.171 0.835 0.747 0.665 1.285 L 4.18 64.5 C 4.041 64.935 3.639 65.213 3.206 65.213 z" style="stroke: none; stroke-width: 1; stroke-dasharray: none; stroke-linecap: butt; stroke-linejoin: miter; stroke-miterlimit: 10; fill: rgb(90,81,107); fill-rule: nonzero; opacity: 1;" transform=" matrix(1 0 0 1 0 0) " stroke-linecap="round" />
	<path d="M 21.736 71.402 H 3.811 C 1.706 71.402 0 69.695 0 67.591 V 64.19 h 25.547 v 3.401 C 25.547 69.695 23.84 71.402 21.736 71.402 z" style="stroke: none; stroke-width: 1; stroke-dasharray: none; stroke-linecap: butt; stroke-linejoin: miter; stroke-miterlimit: 10; fill: rgb(150,148,162); fill-rule: nonzero; opacity: 1;" transform=" matrix(1 0 0 1 0 0) " stroke-linecap="round" />
	<path d="M 86.795 42.713 c -0.433 0 -0.836 -0.278 -0.975 -0.713 l -8.841 -27.8 c -0.171 -0.538 0.127 -1.114 0.665 -1.285 c 0.534 -0.17 1.113 0.126 1.284 0.665 l 8.841 27.801 c 0.171 0.538 -0.127 1.113 -0.665 1.284 C 87.002 42.698 86.898 42.713 86.795 42.713 z" style="stroke: none; stroke-width: 1; stroke-dasharray: none; stroke-linecap: butt; stroke-linejoin: miter; stroke-miterlimit: 10; fill: rgb(90,81,107); fill-rule: nonzero; opacity: 1;" transform=" matrix(1 0 0 1 0 0) " stroke-linecap="round" />
	<path d="M 67.659 42.713 c -0.103 0 -0.207 -0.015 -0.31 -0.048 c -0.538 -0.172 -0.836 -0.746 -0.665 -1.284 l 8.804 -27.687 c 0.172 -0.538 0.747 -0.834 1.284 -0.665 c 0.538 0.171 0.836 0.747 0.665 1.285 L 68.634 42 C 68.495 42.435 68.092 42.713 67.659 42.713 z" style="stroke: none; stroke-width: 1; stroke-dasharray: none; stroke-linecap: butt; stroke-linejoin: miter; stroke-miterlimit: 10; fill: rgb(90,81,107); fill-rule: nonzero; opacity: 1;" transform=" matrix(1 0 0 1 0 0) " stroke-linecap="round" />
	<path d="M 86.189 48.902 H 68.264 c -2.105 0 -3.811 -1.706 -3.811 -3.811 V 41.69 H 90 v 3.401 C 90 47.195 88.294 48.902 86.189 48.902 z" style="stroke: none; stroke-width: 1; stroke-dasharray: none; stroke-linecap: butt; stroke-linejoin: miter; stroke-miterlimit: 10; fill: rgb(150,148,162); fill-rule: nonzero; opacity: 1;" transform=" matrix(1 0 0 1 0 0) " stroke-linecap="round" />
	<path d="M 45 17.05 c -3.219 0 -5.828 2.609 -5.828 5.828 c 0 3.219 2.61 5.828 5.828 5.828 s 5.828 -2.609 5.828 -5.828 C 50.828 19.66 48.219 17.05 45 17.05 z M 45 24.971 c -1.155 0 -2.092 -0.937 -2.092 -2.092 c 0 -1.155 0.937 -2.092 2.092 -2.092 s 2.092 0.937 2.092 2.092 C 47.092 24.034 46.155 24.971 45 24.971 z" style="stroke: none; stroke-width: 1; stroke-dasharray: none; stroke-linecap: butt; stroke-linejoin: miter; stroke-miterlimit: 10; fill: rgb(150,148,162); fill-rule: nonzero; opacity: 1;" transform=" matrix(1 0 0 1 0 0) " stroke-linecap="round" />
	<circle cx="77.225" cy="11.625" r="2.375" style="stroke: none; stroke-width: 1; stroke-dasharray: none; stroke-linecap: butt; stroke-linejoin: miter; stroke-miterlimit: 10; fill: rgb(150,148,162); fill-rule: nonzero; opacity: 1;" transform="  matrix(1 0 0 1 0 0) "/>
	<circle cx="12.775" cy="34.125" r="2.375" style="stroke: none; stroke-width: 1; stroke-dasharray: none; stroke-linecap: butt; stroke-linejoin: miter; stroke-miterlimit: 10; fill: rgb(150,148,162); fill-rule: nonzero; opacity: 1;" transform="  matrix(1 0 0 1 0 0) "/>
	<path d="M 61.263 80.746 H 28.737 c -0.525 0 -0.951 -0.426 -0.951 -0.951 v -3.566 c 0 -0.525 0.426 -0.951 0.951 -0.951 h 32.527 c 0.525 0 0.951 0.426 0.951 0.951 v 3.566 C 62.215 80.32 61.789 80.746 61.263 80.746 z" style="stroke: none; stroke-width: 1; stroke-dasharray: none; stroke-linecap: butt; stroke-linejoin: miter; stroke-miterlimit: 10; fill: rgb(90,81,107); fill-rule: nonzero; opacity: 1;" transform=" matrix(1 0 0 1 0 0) " stroke-linecap="round" />
</g>
</svg>